<?xml version="1.0" standalone="no"?>
<!DOCTYPE svg PUBLIC "-//W3C//DTD SVG 20010904//EN"
 "http://www.w3.org/TR/2001/REC-SVG-20010904/DTD/svg10.dtd">
<svg version="1.0" xmlns="http://www.w3.org/2000/svg"
 width="1133.000000pt" height="1133.000000pt" viewBox="0 0 1133.000000 1133.000000"
 preserveAspectRatio="xMidYMid meet">
<metadata>
Created by potrace 1.14, written by Peter Selinger 2001-2017
</metadata>
<g transform="translate(0.000000,1133.000000) scale(0.100000,-0.100000)"
fill="#000000" stroke="none">
<path d="M5235 11129 c-96 -15 -128 -56 -140 -172 -3 -37 -8 -76 -10 -85 -6
-33 -28 -255 -40 -402 -2 -36 -7 -96 -10 -135 -3 -38 -7 -92 -10 -120 -2 -27
-7 -102 -11 -165 -4 -63 -8 -131 -9 -150 -2 -19 -3 -44 -4 -55 -1 -15 -15 -24
-59 -38 -175 -55 -788 -332 -967 -437 -16 -9 -55 -31 -85 -47 -65 -35 -230
-131 -268 -155 -15 -10 -40 -25 -57 -34 -113 -64 -424 -285 -594 -422 -151
-123 -155 -126 -286 -258 -340 -341 -627 -814 -878 -1449 -100 -253 -218 -627
-284 -898 -32 -133 0 -89 -263 -367 -179 -189 -178 -188 -208 -232 -33 -51
-34 -100 -6 -300 2 -14 12 -77 23 -140 19 -112 28 -164 37 -223 3 -16 9 -52
14 -80 5 -27 12 -63 14 -80 13 -83 84 -511 90 -540 2 -11 7 -40 10 -65 3 -25
8 -54 10 -65 2 -11 7 -40 11 -65 4 -25 9 -54 11 -65 2 -10 6 -35 9 -55 3 -20
7 -45 9 -57 3 -11 7 -38 11 -59 12 -77 45 -279 50 -304 2 -8 6 -41 10 -72 4
-32 16 -67 25 -78 10 -12 32 -38 50 -60 17 -21 43 -51 56 -67 14 -15 54 -62
89 -103 35 -41 79 -83 97 -92 18 -9 162 -79 319 -156 l285 -139 78 -144 c86
-159 251 -437 303 -511 18 -26 33 -52 33 -56 0 -5 9 -17 20 -27 11 -10 20 -22
20 -26 0 -5 26 -46 58 -92 262 -380 524 -679 746 -852 21 -16 44 -34 50 -40
20 -18 119 -92 186 -139 101 -70 463 -296 475 -296 2 0 27 -14 56 -31 57 -33
307 -160 409 -207 l65 -30 890 0 890 0 180 88 c152 74 300 154 497 268 167 96
431 281 588 410 363 301 785 866 1148 1537 l80 147 229 112 c125 61 269 132
318 156 82 40 97 51 167 134 102 119 123 144 160 185 30 33 41 63 53 151 3 25
8 52 10 60 2 8 6 33 9 55 4 22 8 51 11 65 3 14 7 39 9 55 2 17 12 73 21 125 9
52 18 106 20 120 3 14 7 36 9 50 3 14 8 43 11 65 3 22 15 94 26 160 11 66 22
131 24 145 2 14 11 68 20 120 9 52 18 109 21 125 2 17 9 55 14 85 14 84 19
111 25 155 4 22 8 47 10 55 3 8 7 35 10 60 3 25 10 68 15 95 5 28 11 64 14 80
2 17 11 73 20 125 24 139 30 252 17 291 -15 45 -57 93 -357 407 l-101 106 -37
150 c-92 371 -231 779 -384 1126 -59 134 -221 454 -267 525 -19 31 -35 57 -35
60 0 13 -193 291 -263 379 -129 162 -274 310 -412 421 -28 22 -54 45 -60 52
-22 26 -316 240 -453 331 -128 85 -310 197 -407 252 -226 127 -525 275 -765
381 -131 57 -392 159 -407 159 -7 0 -14 3 -15 8 -3 14 -6 58 -12 147 -3 50 -8
124 -11 165 -3 41 -8 111 -11 155 -3 44 -7 98 -9 120 -2 22 -7 74 -10 115 -6
75 -8 101 -20 215 -6 60 -13 118 -20 165 -2 14 -6 51 -10 83 -5 44 -13 66 -33
87 -50 53 -87 58 -522 57 -217 -1 -413 -4 -435 -8z"/>
</g>
</svg>
